<svg xmlns="http://www.w3.org/2000/svg" xmlns:xlink="http://www.w3.org/1999/xlink" version="1.1" x="0px" y="0px" viewBox="0 0 1550 1937.5" style="enable-background:new 0 0 1550 1550;" xml:space="preserve"><path d="M1538.1,1253.1l-192.2-143.3c-3.7-2.8-8.6-3.2-12.7-1.1s-6.7,6.3-6.7,10.9v85.6h-293.2c-136.2-32.6-234.9-157.5-234.9-297.4  v-13.2h132.1c6.7,0,12.2-5.5,12.2-12.2V675.1c0-6.7-5.5-12.2-12.2-12.2H798.4v-84.3h132.1c6.7,0,12.2-5.5,12.2-12.2V359.2  c0-6.7-5.5-12.2-12.2-12.2H798.4v-94.7c27.8-5.7,48.8-30.3,48.8-59.7c0-33.6-27.3-61-61-61s-61,27.3-61,61c0,29.4,21,54.1,48.8,59.7  V347H641.9c-6.7,0-12.2,5.5-12.2,12.2v207.2c0,6.7,5.5,12.2,12.2,12.2H774v84.3H641.9c-6.7,0-12.2,5.5-12.2,12.2v207.2  c0,6.7,5.5,12.2,12.2,12.2H774v13.2c0,38.1,6.5,75.5,19.4,111.2c12.4,34.4,30.4,66.5,53.5,95.2c31.1,38.6,70.4,69.7,114.5,91.1  H561.9C425.7,1172.5,327,1047.6,327,907.7v-13.2h132.1c6.7,0,12.2-5.5,12.2-12.2V675.1c0-6.7-5.5-12.2-12.2-12.2H327v-84.3h132.1  c6.7,0,12.2-5.5,12.2-12.2V359.2c0-6.7-5.5-12.2-12.2-12.2H327v-94.7c27.8-5.7,48.8-30.3,48.8-59.7c0-33.6-27.3-61-61-61  c-33.6,0-61,27.3-61,61c0,29.4,21,54.1,48.8,59.7V347h-132c-6.7,0-12.2,5.5-12.2,12.2v207.2c0,6.7,5.5,12.2,12.2,12.2h132.1v84.3  H170.6c-6.7,0-12.2,5.5-12.2,12.2v207.2c0,6.7,5.5,12.2,12.2,12.2h132.1v13.2c0,38.1,6.5,75.5,19.4,111.2  c12.4,34.4,30.4,66.5,53.5,95.2c31.1,38.6,70.4,69.7,114.5,91.1H19.2c-6.7,0-12.2,5.5-12.2,12.2v91.1c0,6.7,5.5,12.2,12.2,12.2  h1307.2v85.6c0,10.6,12.2,15.3,19.5,9.8l192.2-143.3c3.1-2.3,4.9-5.9,4.9-9.8S1541.2,1255.4,1538.1,1253.1z"/><text x="0" y="1565" fill="#000000" font-size="5px" font-weight="bold" font-family="'Helvetica Neue', Helvetica, Arial-Unicode, Arial, Sans-serif">Created by SAM Designs</text><text x="0" y="1570" fill="#000000" font-size="5px" font-weight="bold" font-family="'Helvetica Neue', Helvetica, Arial-Unicode, Arial, Sans-serif">from the Noun Project</text></svg>